<svg width="64" height="65" viewBox="0 0 64 65" fill="none" xmlns="http://www.w3.org/2000/svg">
<circle cx="32" cy="32.3193" r="31.5" fill="#1D1D1D" stroke="white"/>
<path d="M25 23.3193C23.897 23.3193 23 24.2163 23 25.3193V39.3193C23 40.4223 23.897 41.3193 25 41.3193H31.6211H34.4141H39C40.103 41.3193 41 40.4223 41 39.3193V25.3193C41 24.2163 40.103 23.3193 39 23.3193H25ZM25 25.3193H39L39.002 39.3193H34.4141V35.3545H36.7793L37.1309 32.6299H34.4297V30.8936C34.4297 30.1056 34.6493 29.5732 35.7793 29.5732H37.207V27.1416C36.512 27.0706 35.8142 27.0361 35.1152 27.0381C33.0412 27.0381 31.6211 28.3039 31.6211 30.6279V32.6338H29.2773V35.3584H31.6211V39.3193H25V25.3193Z" fill="white"/>
</svg>
