<svg width="247" height="57" viewBox="0 0 247 57" fill="none" xmlns="http://www.w3.org/2000/svg">
<path d="M31.4614 0.399996C32.048 0.293331 32.608 0.226664 33.1414 0.199996C33.7014 0.173331 34.248 0.159999 34.7814 0.159999C36.9947 0.159999 38.808 0.493332 40.2214 1.16C41.6614 1.8 42.768 2.66666 43.5414 3.76C44.3147 4.82667 44.7947 6.05333 44.9814 7.44C45.1947 8.8 45.1814 10.1867 44.9414 11.6C44.568 13.8933 43.7947 16.0533 42.6214 18.08C41.4747 20.08 40.0614 21.92 38.3814 23.6C36.728 25.28 34.9014 26.7867 32.9014 28.12C30.9014 29.4533 28.8614 30.5867 26.7814 31.52C24.728 32.4267 22.7147 33.1333 20.7414 33.64C18.768 34.1467 16.9947 34.4 15.4214 34.4C14.5147 34.3733 13.6347 34.2267 12.7814 33.96C11.4214 36.4667 10.2614 38.8133 9.30135 41C8.36802 43.1867 7.67469 45.1333 7.22135 46.84C7.03468 47.5333 6.72802 47.8933 6.30135 47.92C5.90135 47.9733 5.50135 47.7867 5.10135 47.36C4.72802 46.96 4.42135 46.3733 4.18135 45.6C3.96802 44.8533 3.94135 44.0133 4.10135 43.08C4.39468 41.5333 4.94135 39.7733 5.74135 37.8C6.54135 35.8 7.51469 33.6667 8.66135 31.4C7.59469 30.0933 7.10135 28.5467 7.18135 26.76L7.22135 26.84C7.16802 26.3067 7.38135 25.8 7.86135 25.32C8.34135 24.84 9.04802 24.4 9.98135 24C10.088 25.4933 10.328 26.6933 10.7014 27.6C11.768 25.6533 12.9014 23.7067 14.1014 21.76C15.3014 19.7867 16.5147 17.8667 17.7414 16C18.968 14.1333 20.1814 12.36 21.3814 10.68C22.5814 8.97333 23.728 7.42667 24.8214 6.04C23.2214 6.92 21.6214 8.01333 20.0214 9.32C18.4214 10.6267 16.8747 12.0533 15.3814 13.6C13.888 15.12 12.488 16.6933 11.1814 18.32C9.87469 19.9467 8.72802 21.5333 7.74135 23.08C6.75468 24.6 5.95468 26.0267 5.34135 27.36C4.72802 28.6933 4.38135 29.8267 4.30135 30.76C4.24802 31.24 3.98135 31.4533 3.50135 31.4C3.02135 31.3467 2.51468 31.12 1.98135 30.72C1.44802 30.2933 0.981351 29.72 0.581351 29C0.208018 28.28 0.088018 27.5067 0.221351 26.68C0.274685 26.44 0.328018 26.2 0.381351 25.96C0.434685 25.6933 0.528018 25.44 0.661351 25.2V25.24C1.48802 23.2133 2.52802 21.2133 3.78135 19.24C5.03468 17.24 6.43468 15.3467 7.98135 13.56C9.55469 11.7467 11.2614 10.0667 13.1014 8.52C14.9414 6.94666 16.8614 5.58666 18.8614 4.44C20.8614 3.26666 22.928 2.33333 25.0614 1.64C27.1947 0.919999 29.3547 0.506664 31.5414 0.399996H31.4614ZM31.1414 3.88C30.528 3.93333 29.888 4.04 29.2214 4.2C28.5814 4.36 27.9147 4.58666 27.2214 4.88C27.5947 5.06667 27.968 5.33333 28.3414 5.68C28.7414 6.02666 29.0747 6.42666 29.3414 6.88C29.608 7.30667 29.7814 7.76 29.8614 8.24C29.968 8.72 29.9014 9.2 29.6614 9.68C28.328 11.1467 26.9814 12.7333 25.6214 14.44C24.288 16.1467 22.968 17.9067 21.6614 19.72C20.3814 21.5333 19.128 23.3867 17.9014 25.28C16.7014 27.1733 15.568 29.04 14.5014 30.88C14.7147 30.9333 14.928 30.96 15.1414 30.96C15.3814 30.96 15.6214 30.96 15.8614 30.96C17.248 30.96 18.728 30.72 20.3014 30.24C21.9014 29.76 23.5147 29.0933 25.1414 28.24C26.768 27.3867 28.3547 26.36 29.9014 25.16C31.448 23.96 32.8614 22.64 34.1414 21.2C35.4214 19.76 36.5147 18.2267 37.4214 16.6C38.3547 14.9467 39.008 13.2533 39.3814 11.52C39.488 10.7733 39.488 9.96 39.3814 9.08C39.2747 8.17333 38.9414 7.34667 38.3814 6.6C37.8214 5.82666 36.968 5.18666 35.8214 4.68C34.7014 4.14667 33.1414 3.88 31.1414 3.88ZM51.4232 34C50.6766 34.9067 49.8499 35.84 48.9432 36.8C48.0366 37.7333 47.0766 38.5867 46.0632 39.36C45.0499 40.1333 43.9966 40.76 42.9032 41.24C41.8099 41.72 40.7299 41.9333 39.6632 41.88C39.0499 41.8533 38.5299 41.7067 38.1032 41.44C37.6766 41.1733 37.3432 40.8267 37.1032 40.4C36.8899 39.9467 36.7566 39.44 36.7032 38.88C36.6499 38.32 36.6766 37.7333 36.7832 37.12C36.9699 36.24 37.2366 35.4133 37.5832 34.64C37.9299 33.8667 38.3299 33.1333 38.7832 32.44C39.2632 31.7467 39.7699 31.0667 40.3032 30.4C40.8366 29.7333 41.3966 29.0533 41.9832 28.36L42.9432 27.24V27.28L44.1032 25.92C44.3166 25.6267 44.5966 25.36 44.9432 25.12C45.3166 24.88 45.8899 24.6533 46.6632 24.44C46.2899 24.52 45.9832 24.5867 45.7432 24.64C45.5032 24.6667 45.2899 24.7067 45.1032 24.76C44.7566 24.84 44.4099 24.92 44.0632 25C43.7166 25.08 43.3166 25.1067 42.8632 25.08H42.4632C41.7432 25.9867 41.0632 26.88 40.4232 27.76C39.7832 28.6133 39.1832 29.4267 38.6232 30.2V30.16C38.5166 30.32 38.3299 30.36 38.0632 30.28C37.7966 30.2 37.5432 30.0667 37.3032 29.88C37.0632 29.6667 36.8632 29.44 36.7032 29.2C36.5699 28.9333 36.5832 28.7067 36.7432 28.52V28.56C37.5166 27.5467 38.1699 26.6667 38.7032 25.92C39.2366 25.1467 39.7166 24.4667 40.1432 23.88C39.9299 23.4267 39.8899 22.8933 40.0232 22.28C40.1566 21.4533 40.4499 20.72 40.9032 20.08C41.3566 19.44 41.8899 18.6933 42.5032 17.84C42.7432 17.4933 42.9966 17.1067 43.2632 16.68C43.5566 16.2533 43.8499 15.7333 44.1432 15.12C44.5166 15.3333 44.8899 15.56 45.2632 15.8C45.6366 16.0133 45.9566 16.28 46.2232 16.6C46.5166 16.8933 46.7299 17.24 46.8632 17.64C46.9966 18.04 47.0232 18.4933 46.9432 19C46.8899 19.24 46.8232 19.5067 46.7432 19.8C46.6632 20.0667 46.5166 20.3867 46.3032 20.76L44.6232 22.56C44.4899 22.72 44.5566 22.7467 44.8232 22.64C45.0899 22.5067 45.4766 22.2933 45.9832 22C46.4899 21.7067 47.0632 21.36 47.7032 20.96C48.3432 20.56 48.9699 20.16 49.5832 19.76C50.1966 19.36 50.7299 18.9867 51.1832 18.64C51.6632 18.2933 51.9966 18.0267 52.1832 17.84C52.3432 17.84 52.5432 17.92 52.7832 18.08C53.0232 18.24 53.2499 18.4267 53.4632 18.64C53.7032 18.8267 53.9032 19.0133 54.0632 19.2C54.2499 19.36 54.3566 19.4667 54.3832 19.52C54.5966 19.9733 54.5966 20.52 54.3832 21.16C54.1699 21.7733 53.8099 22.4533 53.3032 23.2C52.8232 23.9467 52.2232 24.7467 51.5032 25.6C50.8099 26.4267 50.0766 27.28 49.3032 28.16C48.8499 28.64 48.4099 29.12 47.9832 29.6C47.5566 30.08 47.1299 30.5733 46.7032 31.08C46.3832 31.4533 46.0232 31.88 45.6232 32.36C45.2232 32.84 44.8366 33.3333 44.4632 33.84C44.0899 34.32 43.7699 34.8 43.5032 35.28C43.2366 35.76 43.0766 36.16 43.0232 36.48C42.9699 36.64 43.1032 36.72 43.4232 36.72C43.7166 36.7467 44.1032 36.6533 44.5832 36.44C45.0632 36.2 45.5832 35.88 46.1432 35.48C46.7032 35.0533 47.2766 34.56 47.8632 34C48.4499 33.44 48.9966 32.8267 49.5032 32.16H49.4632C50.1566 31.3067 50.8099 30.4667 51.4232 29.64C52.0366 28.8133 52.5299 28.1067 52.9032 27.52C53.0366 27.3867 53.2366 27.3733 53.5032 27.48C53.7699 27.56 54.0232 27.7067 54.2632 27.92C54.5032 28.1333 54.6899 28.3867 54.8232 28.68C54.9566 28.9467 54.9432 29.1733 54.7832 29.36L54.8232 29.28L53.3832 31.28L51.5032 33.96L51.4232 34ZM58.3692 18.12C58.7692 17.9333 59.2358 17.9733 59.7692 18.24C60.3025 18.48 60.7692 18.8533 61.1692 19.36C61.5692 19.84 61.8492 20.4133 62.0092 21.08C62.1692 21.72 62.0758 22.3467 61.7292 22.96C61.7825 22.9067 61.7558 22.96 61.6492 23.12C61.5425 23.28 61.3958 23.4933 61.2092 23.76C61.0225 24.0267 60.8092 24.3333 60.5692 24.68C60.3292 25.0267 60.1158 25.3467 59.9292 25.64C59.4492 26.3333 58.9158 27.1067 58.3292 27.96C57.7692 28.7867 57.1958 29.64 56.6092 30.52C56.0492 31.3733 55.5025 32.2133 54.9692 33.04C54.4625 33.8667 54.0225 34.6 53.6492 35.24C53.3025 35.88 53.0492 36.4 52.8892 36.8C52.7292 37.1733 52.7292 37.36 52.8892 37.36H53.1692C53.9958 37.0933 54.8092 36.6533 55.6092 36.04C56.4358 35.4267 57.2492 34.7333 58.0492 33.96C58.8492 33.16 59.6092 32.32 60.3292 31.44C61.0758 30.56 61.7825 29.6933 62.4492 28.84L62.4892 28.92C62.6492 28.7067 62.8092 28.48 62.9692 28.24C63.1292 28 63.2892 27.7867 63.4492 27.6C63.5825 27.44 63.7825 27.4133 64.0492 27.52C64.3158 27.6 64.5692 27.7467 64.8092 27.96C65.0492 28.1733 65.2358 28.4267 65.3692 28.72C65.5025 28.9867 65.4892 29.2133 65.3292 29.4L65.2892 29.36L64.1692 30.76L64.1292 30.8C62.8492 32.4 61.5025 34 60.0892 35.6C58.6758 37.2 57.1292 38.6133 55.4492 39.84C55.1825 40.0267 54.8492 40.2533 54.4492 40.52C54.0758 40.76 53.6625 40.9867 53.2092 41.2C52.7558 41.4133 52.2758 41.5867 51.7692 41.72C51.2625 41.88 50.7692 41.96 50.2892 41.96C49.2492 41.9333 48.5558 41.5333 48.2092 40.76C47.8358 39.96 47.7425 38.9733 47.9292 37.8C48.1158 36.8933 48.4092 35.9867 48.8092 35.08L48.7692 35.12C49.3025 33.7867 50.0625 32.24 51.0492 30.48C52.0625 28.72 53.1025 26.96 54.1692 25.2C54.8625 24 55.5292 22.84 56.1692 21.72C56.8358 20.5733 57.3958 19.5333 57.8492 18.6L58.3692 18.12ZM66.7692 7.84C66.9292 7.68 67.1158 7.81333 67.3292 8.24C67.5692 8.64 67.7692 9.13333 67.9292 9.72C68.0892 10.3067 68.1958 10.8933 68.2492 11.48C68.3025 12.04 68.2492 12.4 68.0892 12.56C66.9425 13.4133 65.9425 14.08 65.0892 14.56C64.2358 15.04 63.3825 15.5067 62.5292 15.96L60.8492 16.88C60.5558 17.0667 60.2758 17.1467 60.0092 17.12C59.7425 17.0667 59.5292 16.9467 59.3692 16.76C59.2358 16.5733 59.1692 16.3333 59.1692 16.04C59.1958 15.72 59.3292 15.3733 59.5692 15L66.7692 7.84ZM82.997 33.16C82.4903 33.8533 81.8236 34.6933 80.997 35.68C80.1703 36.6667 79.2636 37.6267 78.277 38.56C77.2903 39.4933 76.277 40.2933 75.237 40.96C74.2236 41.6 73.2636 41.92 72.357 41.92C71.797 41.92 71.2636 41.8133 70.757 41.6C70.2503 41.4133 69.837 41.1067 69.517 40.68C69.197 40.2533 68.9703 39.7067 68.837 39.04C68.7303 38.3467 68.7703 37.5333 68.957 36.6C69.1436 35.8 69.3703 35.0133 69.637 34.24C69.9303 33.4667 70.277 32.6533 70.677 31.8C71.1036 30.9467 71.5836 30.0267 72.117 29.04C72.6503 28.0267 73.2636 26.8933 73.957 25.64C74.277 25.1067 74.5303 24.6133 74.717 24.16C74.9303 23.68 75.0636 23.2933 75.117 23L73.197 24.64C72.077 25.5733 71.037 26.5067 70.077 27.44C69.1436 28.3733 68.1836 29.4 67.197 30.52C66.2903 32.1733 65.477 33.8667 64.757 35.6C64.037 37.3067 63.4503 39.04 62.997 40.8C62.8903 41.0933 62.6103 41.2267 62.157 41.2C61.7036 41.1733 61.2236 41.0533 60.717 40.84C60.237 40.6 59.8103 40.3067 59.437 39.96C59.037 39.6133 58.8503 39.2667 58.877 38.92C59.117 37.72 59.4236 36.56 59.797 35.44C60.197 34.2933 60.637 33.1733 61.117 32.08C61.597 30.96 62.1036 29.8667 62.637 28.8C63.197 27.7067 63.757 26.6133 64.317 25.52C64.957 24.24 65.5836 23 66.197 21.8C66.8103 20.5733 67.357 19.4 67.837 18.28C68.157 18.12 68.5436 18.12 68.997 18.28C69.477 18.4133 69.9303 18.64 70.357 18.96C70.7836 19.28 71.157 19.68 71.477 20.16C71.797 20.6133 71.997 21.0933 72.077 21.6C73.2236 20.64 74.3836 19.8267 75.557 19.16C76.7303 18.4933 77.9036 18.12 79.077 18.04C79.4503 18.04 79.8103 18.2133 80.157 18.56C80.5303 18.88 80.8503 19.28 81.117 19.76C81.3836 20.24 81.557 20.76 81.637 21.32C81.717 21.88 81.6636 22.3733 81.477 22.8C80.7836 24.16 80.1036 25.44 79.437 26.64C78.7703 27.8133 78.197 28.8267 77.717 29.68C77.2903 30.4267 76.8903 31.12 76.517 31.76C76.1703 32.3733 75.8503 32.9867 75.557 33.6C75.2903 34.2133 75.037 34.84 74.797 35.48C74.5836 36.12 74.3836 36.8133 74.197 37.56C74.2236 37.5067 74.317 37.4267 74.477 37.32H74.437C75.237 36.92 76.2236 36.24 77.397 35.28C78.5703 34.32 79.797 33.0133 81.077 31.36C81.4236 30.9333 81.7436 30.52 82.037 30.12C82.357 29.72 82.6636 29.32 82.957 28.92L83.717 27.76C83.8236 27.6267 84.0236 27.6 84.317 27.68C84.6103 27.7333 84.877 27.8533 85.117 28.04C85.3836 28.2267 85.5836 28.4533 85.717 28.72C85.877 28.96 85.877 29.1733 85.717 29.36L85.757 29.28L83.037 33.12L82.997 33.16ZM101.267 30.72C100.413 31.92 99.3733 33.2533 98.1467 34.72C96.9467 36.16 95.5733 37.56 94.0267 38.92C93.12 39.6667 92.24 40.2533 91.3867 40.68C90.5333 41.08 89.7467 41.3733 89.0267 41.56C88.3067 41.7733 87.6533 41.8933 87.0667 41.92C86.5067 41.9733 86.0667 42 85.7467 42C83.6667 42 82.16 41.4 81.2267 40.2C80.32 39 80 37.36 80.2667 35.28C80.5067 33.4667 81.08 31.6933 81.9867 29.96C82.92 28.2267 84.2267 26.3467 85.9067 24.32C86.4933 23.6533 87.2267 22.9467 88.1067 22.2C88.9867 21.4267 89.9467 20.72 90.9867 20.08C92.0267 19.44 93.1067 18.92 94.2267 18.52C95.3733 18.12 96.4667 17.9333 97.5067 17.96C98.6 17.9867 99.4133 18.36 99.9467 19.08C100.507 19.7733 100.68 20.6933 100.467 21.84C100.307 22.9067 99.8267 23.9733 99.0267 25.04C98.7067 25.3867 98.3733 25.6 98.0267 25.68C97.7067 25.7333 97.4267 25.68 97.1867 25.52C96.9733 25.36 96.8133 25.1067 96.7067 24.76C96.6267 24.4133 96.6667 24.0133 96.8267 23.56C97.1467 23.1333 97.3333 22.7067 97.3867 22.28C97.4133 22.1467 97.3867 22.0533 97.3067 22C97.2533 21.92 97.12 21.9067 96.9067 21.96C95.84 22.1733 94.7733 22.6933 93.7067 23.52C92.6667 24.3467 91.6933 25.2933 90.7867 26.36C89.88 27.4267 89.08 28.5467 88.3867 29.72C87.6933 30.8667 87.1733 31.88 86.8267 32.76L86.3867 34.36C86.3333 34.76 86.3067 35.16 86.3067 35.56C86.3067 35.9333 86.3467 36.2933 86.4267 36.64C86.5333 36.96 86.68 37.2533 86.8667 37.52C87.08 37.76 87.3467 37.92 87.6667 38L87.5867 37.96C88.0933 38.0933 88.7067 38.0533 89.4267 37.84C90.1733 37.6267 90.9733 37.2533 91.8267 36.72C92.7067 36.16 93.6267 35.44 94.5867 34.56C95.5467 33.68 96.5067 32.64 97.4667 31.44C97.9733 30.8 98.4533 30.1467 98.9067 29.48C99.3867 28.7867 99.84 28.1333 100.267 27.52C100.56 27.1733 100.893 26.9867 101.267 26.96C101.64 26.9333 101.96 27.0133 102.227 27.2C102.493 27.3867 102.653 27.6667 102.707 28.04C102.76 28.3867 102.613 28.8 102.267 29.28L101.267 30.72ZM105.83 18.12C106.23 17.9333 106.697 17.9733 107.23 18.24C107.763 18.48 108.23 18.8533 108.63 19.36C109.03 19.84 109.31 20.4133 109.47 21.08C109.63 21.72 109.537 22.3467 109.19 22.96C109.243 22.9067 109.217 22.96 109.11 23.12C109.003 23.28 108.857 23.4933 108.67 23.76C108.483 24.0267 108.27 24.3333 108.03 24.68C107.79 25.0267 107.577 25.3467 107.39 25.64C106.91 26.3333 106.377 27.1067 105.79 27.96C105.23 28.7867 104.657 29.64 104.07 30.52C103.51 31.3733 102.963 32.2133 102.43 33.04C101.923 33.8667 101.483 34.6 101.11 35.24C100.763 35.88 100.51 36.4 100.35 36.8C100.19 37.1733 100.19 37.36 100.35 37.36H100.63C101.483 37.0933 102.323 36.6667 103.15 36.08C103.977 35.4667 104.763 34.7733 105.51 34C106.283 33.2267 107.03 32.4133 107.75 31.56C108.47 30.68 109.163 29.84 109.83 29.04L110.55 28.08C110.71 27.92 110.923 27.8933 111.19 28C111.457 28.08 111.697 28.24 111.91 28.48C112.15 28.6933 112.323 28.9467 112.43 29.24C112.537 29.5067 112.51 29.7333 112.35 29.92L112.39 29.84C111.057 31.5733 109.563 33.3333 107.91 35.12C106.257 36.9067 104.59 38.48 102.91 39.84C102.643 40.0267 102.31 40.2533 101.91 40.52C101.537 40.76 101.123 40.9867 100.67 41.2C100.217 41.4133 99.7368 41.5867 99.2301 41.72C98.7234 41.88 98.2301 41.96 97.7501 41.96C96.7101 41.9333 96.0168 41.5333 95.6701 40.76C95.2968 39.96 95.2034 38.9733 95.3901 37.8C95.5768 36.8933 95.8701 35.9867 96.2701 35.08L96.2301 35.12C96.7634 33.7867 97.5234 32.24 98.5101 30.48C99.5234 28.72 100.563 26.96 101.63 25.2C102.323 24 102.99 22.84 103.63 21.72C104.297 20.5733 104.857 19.5333 105.31 18.6L105.83 18.12ZM111.91 5.88C112.23 5.82666 112.603 6.01333 113.03 6.44C113.483 6.84 113.897 7.32 114.27 7.88C114.67 8.41333 114.99 8.96 115.23 9.52C115.497 10.0533 115.603 10.44 115.55 10.68C115.257 11.4533 114.923 12.1333 114.55 12.72C114.203 13.3067 113.843 13.9067 113.47 14.52C113.097 15.1333 112.71 15.76 112.31 16.4C111.937 17.04 111.563 17.7867 111.19 18.64C110.87 18.56 110.523 18.3733 110.15 18.08C109.803 17.76 109.483 17.4 109.19 17C108.897 16.6 108.657 16.1867 108.47 15.76C108.31 15.3333 108.257 14.9733 108.31 14.68C108.443 14.1467 108.617 13.56 108.83 12.92C109.07 12.28 109.337 11.6133 109.63 10.92C109.923 10.2267 110.203 9.52 110.47 8.8C110.737 8.08 110.95 7.38667 111.11 6.72L111.91 5.88ZM115.258 18.28C115.578 18.12 115.951 18.1067 116.378 18.24C116.805 18.3467 117.231 18.56 117.658 18.88C118.085 19.1733 118.458 19.5333 118.778 19.96C119.125 20.3867 119.351 20.84 119.458 21.32C120.845 20.3067 122.258 19.4933 123.698 18.88C125.138 18.24 126.458 18 127.658 18.16C128.485 18.2933 129.151 18.5467 129.658 18.92C130.191 19.2933 130.591 19.76 130.858 20.32C131.125 20.88 131.271 21.5067 131.298 22.2C131.325 22.8667 131.271 23.5733 131.138 24.32C130.925 25.5733 130.565 26.7733 130.058 27.92C129.311 29.5733 128.351 31.2 127.178 32.8C126.031 34.3733 124.765 35.8 123.378 37.08C122.018 38.36 120.578 39.4267 119.058 40.28C117.538 41.1067 116.045 41.6 114.578 41.76C113.351 41.7333 112.378 41.4667 111.658 40.96C110.938 40.4267 110.431 39.7733 110.138 39C109.765 39.8267 109.445 40.6533 109.178 41.48C108.911 42.3067 108.658 43.16 108.418 44.04C108.178 44.92 107.951 45.8267 107.738 46.76C107.525 47.6933 107.285 48.6667 107.018 49.68C106.938 50 106.671 50.16 106.218 50.16C105.765 50.16 105.298 50.04 104.818 49.8C104.311 49.5867 103.858 49.3067 103.458 48.96C103.058 48.6133 102.858 48.2533 102.858 47.88C102.965 45.8533 103.311 43.88 103.898 41.96C104.485 40.0667 105.205 38.2 106.058 36.36C106.911 34.52 107.845 32.6933 108.858 30.88C109.871 29.0667 110.885 27.2267 111.898 25.36C112.511 24.08 113.111 22.84 113.698 21.64C114.311 20.44 114.831 19.32 115.258 18.28ZM113.578 33.16C113.525 33.2133 113.498 33.2533 113.498 33.28C113.445 33.44 113.391 33.6133 113.338 33.8C113.311 33.9867 113.271 34.1733 113.218 34.36C113.138 34.9467 113.165 35.48 113.298 35.96C113.431 36.4133 113.805 36.6667 114.418 36.72C115.005 36.7733 115.685 36.5867 116.458 36.16C117.231 35.7333 118.031 35.16 118.858 34.44C119.685 33.6933 120.511 32.84 121.338 31.88C122.165 30.92 122.911 29.96 123.578 29C124.271 28.0133 124.845 27.0533 125.298 26.12C125.751 25.1867 126.045 24.3733 126.178 23.68C126.311 22.8533 126.058 22.4267 125.418 22.4C124.831 22.3733 124.178 22.4667 123.458 22.68C122.765 22.8933 122.045 23.2133 121.298 23.64C120.551 24.04 119.805 24.5333 119.058 25.12C118.311 25.7067 117.618 26.3333 116.978 27C116.445 27.96 115.871 28.9867 115.258 30.08C114.671 31.1467 114.125 32.1733 113.618 33.16H113.578ZM148.205 25.24C146.605 27.64 144.712 29.64 142.525 31.24C140.365 32.84 138.045 34.0267 135.565 34.8C135.485 35.52 135.525 36.2 135.685 36.84C135.872 37.48 136.272 37.8667 136.885 38L136.805 37.96C137.312 38.0933 137.925 38.0533 138.645 37.84C139.392 37.6267 140.192 37.2533 141.045 36.72C141.925 36.16 142.845 35.44 143.805 34.56C144.765 33.68 145.725 32.64 146.685 31.44C147.192 30.8 147.672 30.1467 148.125 29.48C148.605 28.7867 149.059 28.1333 149.485 27.52C149.779 27.1733 150.099 26.9867 150.445 26.96C150.819 26.9333 151.125 27.0267 151.365 27.24C151.632 27.4267 151.792 27.7067 151.845 28.08C151.925 28.4267 151.805 28.8267 151.485 29.28L150.485 30.72C149.632 31.92 148.592 33.2533 147.365 34.72C146.165 36.16 144.792 37.56 143.245 38.92C142.339 39.6667 141.459 40.2533 140.605 40.68C139.752 41.08 138.965 41.3733 138.245 41.56C137.525 41.7733 136.872 41.8933 136.285 41.92C135.725 41.9733 135.285 42 134.965 42C132.885 42 131.379 41.4 130.445 40.2C129.539 39 129.219 37.36 129.485 35.28C129.725 33.4667 130.299 31.6933 131.205 29.96C132.139 28.2267 133.445 26.3467 135.125 24.32C135.712 23.6533 136.445 22.9467 137.325 22.2C138.205 21.4267 139.165 20.72 140.205 20.08C141.245 19.44 142.325 18.92 143.445 18.52C144.592 18.12 145.685 17.9333 146.725 17.96C147.819 17.9867 148.645 18.36 149.205 19.08C149.765 19.7733 149.939 20.72 149.725 21.92C149.645 22.4533 149.472 23 149.205 23.56C148.965 24.0933 148.619 24.6667 148.165 25.28L148.205 25.24ZM146.125 21.96C145.165 22.1467 144.219 22.5733 143.285 23.24C142.352 23.9067 141.472 24.6933 140.645 25.6C139.819 26.5067 139.059 27.48 138.365 28.52C137.672 29.5333 137.099 30.4933 136.645 31.4C138.539 30.6267 140.299 29.5867 141.925 28.28C143.552 26.9467 144.939 25.36 146.085 23.52V23.56C146.245 23.3467 146.352 23.1333 146.405 22.92C146.485 22.7067 146.552 22.52 146.605 22.36C146.659 21.9867 146.499 21.8533 146.125 21.96ZM169.553 19.36C167.527 22.64 165.687 25.5467 164.033 28.08C162.407 30.6133 160.913 32.8933 159.553 34.92L158.513 36.52C159.233 36.3333 159.94 35.9867 160.633 35.48C161.327 34.9733 162.007 34.4 162.673 33.76C163.34 33.0933 163.98 32.3867 164.593 31.64C165.233 30.8667 165.86 30.12 166.473 29.4L166.433 29.44L167.913 27.64C168.02 27.5333 168.207 27.5333 168.473 27.64C168.767 27.72 169.033 27.8533 169.273 28.04C169.513 28.2267 169.7 28.4533 169.833 28.72C169.967 28.96 169.953 29.1733 169.793 29.36C169.633 29.5733 169.473 29.8 169.313 30.04C169.153 30.28 169.007 30.4933 168.873 30.68V30.6C168.527 31.08 168.207 31.5333 167.913 31.96C167.62 32.36 167.313 32.7733 166.993 33.2C166.673 33.6 166.327 34.0133 165.953 34.44C165.607 34.8667 165.193 35.3333 164.713 35.84C164.233 36.32 163.713 36.8 163.153 37.28C162.62 37.76 162.047 38.2 161.433 38.6C160.847 38.9733 160.233 39.2933 159.593 39.56C158.98 39.8267 158.353 40 157.713 40.08L157.753 40.56L157.713 40.72C157.767 41.1733 157.78 41.6133 157.753 42.04C157.727 42.4667 157.673 42.9333 157.593 43.44C157.353 44.88 156.913 46.36 156.273 47.88C155.633 49.4267 154.9 50.8267 154.073 52.08C153.22 53.36 152.313 54.4 151.353 55.2C150.393 56.0267 149.473 56.44 148.593 56.44C147.607 56.3867 146.94 55.9867 146.593 55.24C146.22 54.4933 146.073 53.5733 146.153 52.48C146.153 52.4533 146.153 52.4267 146.153 52.4C146.127 52.3733 146.113 52.3333 146.113 52.28C146.46 50.6267 146.967 48.96 147.633 47.28C148.3 45.6 149.073 43.92 149.953 42.24C150.807 40.5867 151.727 38.9333 152.713 37.28C153.7 35.6 154.7 33.9467 155.713 32.32L157.233 29.92L161.953 21.96L165.233 16.6C165.847 15.56 166.46 14.52 167.073 13.48C167.687 12.4133 168.26 11.3733 168.793 10.36C169.353 9.34667 169.86 8.37333 170.313 7.44C170.793 6.50667 171.193 5.64 171.513 4.84C171.913 4.62666 172.407 4.64 172.993 4.88C173.607 5.09333 174.153 5.44 174.633 5.92C175.113 6.37333 175.473 6.92 175.713 7.56C175.953 8.2 175.913 8.81333 175.593 9.4L175.633 9.36C175.473 9.73333 175.18 10.2933 174.753 11.04C174.327 11.76 173.82 12.5867 173.233 13.52C172.673 14.4267 172.073 15.4 171.433 16.44C170.793 17.4533 170.167 18.4267 169.553 19.36ZM154.393 44.44C154.447 44.1467 154.487 43.8667 154.513 43.6C154.54 43.3333 154.567 43.0533 154.593 42.76C153.58 44.4933 152.713 46.1467 151.993 47.72C151.273 49.2933 150.66 50.9867 150.153 52.8C150.66 52.4533 151.153 51.9733 151.633 51.36C152.087 50.7467 152.5 50.0667 152.873 49.32C153.22 48.6 153.527 47.8133 153.793 46.96C154.06 46.1333 154.26 45.2933 154.393 44.44ZM182.087 34C181.341 34.9067 180.514 35.84 179.607 36.8C178.701 37.7333 177.741 38.5867 176.727 39.36C175.714 40.1333 174.661 40.76 173.567 41.24C172.474 41.72 171.394 41.9333 170.327 41.88C169.714 41.8533 169.194 41.7067 168.767 41.44C168.341 41.1733 168.007 40.8267 167.767 40.4C167.554 39.9467 167.421 39.44 167.367 38.88C167.314 38.32 167.341 37.7333 167.447 37.12C167.634 36.24 167.901 35.4133 168.247 34.64C168.594 33.8667 168.994 33.1333 169.447 32.44C169.927 31.7467 170.434 31.0667 170.967 30.4C171.501 29.7333 172.061 29.0533 172.647 28.36L173.607 27.24V27.28L174.767 25.92C174.981 25.6267 175.261 25.36 175.607 25.12C175.981 24.88 176.554 24.6533 177.327 24.44C176.954 24.52 176.647 24.5867 176.407 24.64C176.167 24.6667 175.954 24.7067 175.767 24.76C175.421 24.84 175.074 24.92 174.727 25C174.381 25.08 173.981 25.1067 173.527 25.08H173.127C172.407 25.9867 171.727 26.88 171.087 27.76C170.447 28.6133 169.847 29.4267 169.287 30.2V30.16C169.181 30.32 168.994 30.36 168.727 30.28C168.461 30.2 168.207 30.0667 167.967 29.88C167.727 29.6667 167.527 29.44 167.367 29.2C167.234 28.9333 167.247 28.7067 167.407 28.52V28.56C168.181 27.5467 168.834 26.6667 169.367 25.92C169.901 25.1467 170.381 24.4667 170.807 23.88C170.594 23.4267 170.554 22.8933 170.687 22.28C170.821 21.4533 171.114 20.72 171.567 20.08C172.021 19.44 172.554 18.6933 173.167 17.84C173.407 17.4933 173.661 17.1067 173.927 16.68C174.221 16.2533 174.514 15.7333 174.807 15.12C175.181 15.3333 175.554 15.56 175.927 15.8C176.301 16.0133 176.621 16.28 176.887 16.6C177.181 16.8933 177.394 17.24 177.527 17.64C177.661 18.04 177.687 18.4933 177.607 19C177.554 19.24 177.487 19.5067 177.407 19.8C177.327 20.0667 177.181 20.3867 176.967 20.76L175.287 22.56C175.154 22.72 175.221 22.7467 175.487 22.64C175.754 22.5067 176.141 22.2933 176.647 22C177.154 21.7067 177.727 21.36 178.367 20.96C179.007 20.56 179.634 20.16 180.247 19.76C180.861 19.36 181.394 18.9867 181.847 18.64C182.327 18.2933 182.661 18.0267 182.847 17.84C183.007 17.84 183.207 17.92 183.447 18.08C183.687 18.24 183.914 18.4267 184.127 18.64C184.367 18.8267 184.567 19.0133 184.727 19.2C184.914 19.36 185.021 19.4667 185.047 19.52C185.261 19.9733 185.261 20.52 185.047 21.16C184.834 21.7733 184.474 22.4533 183.967 23.2C183.487 23.9467 182.887 24.7467 182.167 25.6C181.474 26.4267 180.741 27.28 179.967 28.16C179.514 28.64 179.074 29.12 178.647 29.6C178.221 30.08 177.794 30.5733 177.367 31.08C177.047 31.4533 176.687 31.88 176.287 32.36C175.887 32.84 175.501 33.3333 175.127 33.84C174.754 34.32 174.434 34.8 174.167 35.28C173.901 35.76 173.741 36.16 173.687 36.48C173.634 36.64 173.767 36.72 174.087 36.72C174.381 36.7467 174.767 36.6533 175.247 36.44C175.727 36.2 176.247 35.88 176.807 35.48C177.367 35.0533 177.941 34.56 178.527 34C179.114 33.44 179.661 32.8267 180.167 32.16H180.127C180.821 31.3067 181.474 30.4667 182.087 29.64C182.701 28.8133 183.194 28.1067 183.567 27.52C183.701 27.3867 183.901 27.3733 184.167 27.48C184.434 27.56 184.687 27.7067 184.927 27.92C185.167 28.1333 185.354 28.3867 185.487 28.68C185.621 28.9467 185.607 29.1733 185.447 29.36L185.487 29.28L184.047 31.28L182.167 33.96L182.087 34ZM198.713 25.24C197.113 27.64 195.22 29.64 193.033 31.24C190.873 32.84 188.553 34.0267 186.073 34.8C185.993 35.52 186.033 36.2 186.193 36.84C186.38 37.48 186.78 37.8667 187.393 38L187.313 37.96C187.82 38.0933 188.433 38.0533 189.153 37.84C189.9 37.6267 190.7 37.2533 191.553 36.72C192.433 36.16 193.353 35.44 194.313 34.56C195.273 33.68 196.233 32.64 197.193 31.44C197.7 30.8 198.18 30.1467 198.633 29.48C199.113 28.7867 199.567 28.1333 199.993 27.52C200.287 27.1733 200.607 26.9867 200.953 26.96C201.327 26.9333 201.633 27.0267 201.873 27.24C202.14 27.4267 202.3 27.7067 202.353 28.08C202.433 28.4267 202.313 28.8267 201.993 29.28L200.993 30.72C200.14 31.92 199.1 33.2533 197.873 34.72C196.673 36.16 195.3 37.56 193.753 38.92C192.847 39.6667 191.967 40.2533 191.113 40.68C190.26 41.08 189.473 41.3733 188.753 41.56C188.033 41.7733 187.38 41.8933 186.793 41.92C186.233 41.9733 185.793 42 185.473 42C183.393 42 181.887 41.4 180.953 40.2C180.047 39 179.727 37.36 179.993 35.28C180.233 33.4667 180.807 31.6933 181.713 29.96C182.647 28.2267 183.953 26.3467 185.633 24.32C186.22 23.6533 186.953 22.9467 187.833 22.2C188.713 21.4267 189.673 20.72 190.713 20.08C191.753 19.44 192.833 18.92 193.953 18.52C195.1 18.12 196.193 17.9333 197.233 17.96C198.327 17.9867 199.153 18.36 199.713 19.08C200.273 19.7733 200.447 20.72 200.233 21.92C200.153 22.4533 199.98 23 199.713 23.56C199.473 24.0933 199.127 24.6667 198.673 25.28L198.713 25.24ZM196.633 21.96C195.673 22.1467 194.727 22.5733 193.793 23.24C192.86 23.9067 191.98 24.6933 191.153 25.6C190.327 26.5067 189.567 27.48 188.873 28.52C188.18 29.5333 187.607 30.4933 187.153 31.4C189.047 30.6267 190.807 29.5867 192.433 28.28C194.06 26.9467 195.447 25.36 196.593 23.52V23.56C196.753 23.3467 196.86 23.1333 196.913 22.92C196.993 22.7067 197.06 22.52 197.113 22.36C197.167 21.9867 197.007 21.8533 196.633 21.96ZM194.557 35.92C194.77 34.8 195.197 33.7067 195.837 32.64C196.477 31.5733 197.237 30.72 198.117 30.08L199.237 28.64C200.143 27.36 201.063 26.0933 201.997 24.84C202.957 23.5867 203.943 22.3733 204.957 21.2C205.17 20.9867 205.357 20.7733 205.517 20.56C205.677 20.3467 205.85 20.1333 206.037 19.92C206.597 19.2 207.237 18.4267 207.957 17.6C208.703 16.7733 209.743 15.8133 211.077 14.72C211.45 14.9333 211.903 15.24 212.437 15.64C212.97 16.0133 213.41 16.44 213.757 16.92C214.13 17.3733 214.343 17.8533 214.397 18.36C214.45 18.8667 214.197 19.32 213.637 19.72L213.757 19.68C213.223 20.1333 212.837 20.4933 212.597 20.76C212.383 21 212.143 21.2933 211.877 21.64L211.237 22.44C210.543 23.3733 210.01 24.36 209.637 25.4C209.29 26.44 209.023 27.4667 208.837 28.48C208.73 29.04 208.65 29.6133 208.597 30.2C208.543 30.76 208.49 31.3333 208.437 31.92L208.157 34.32C207.997 35.52 207.663 36.6267 207.157 37.64C206.65 38.6267 206.01 39.4667 205.237 40.16C204.49 40.8533 203.637 41.3733 202.677 41.72C201.743 42.0933 200.757 42.2533 199.717 42.2C198.677 42.12 197.797 41.8933 197.077 41.52C196.357 41.1467 195.797 40.68 195.397 40.12C194.97 39.56 194.69 38.92 194.557 38.2C194.423 37.48 194.423 36.72 194.557 35.92ZM203.477 28.52C203.503 28.3067 203.543 28.0933 203.597 27.88C203.65 27.64 203.703 27.4133 203.757 27.2L202.077 29.44L202.037 29.48C202.09 29.6933 202.143 30.0667 202.197 30.6C202.25 31.1067 202.263 31.6533 202.237 32.24C202.21 32.8 202.13 33.3467 201.997 33.88C201.89 34.3867 201.703 34.76 201.437 35C201.277 34.5733 201.01 34.3333 200.637 34.28C200.263 34.2 199.877 34.2533 199.477 34.44C199.077 34.6267 198.717 34.8933 198.397 35.24C198.077 35.56 197.877 35.8933 197.797 36.24C197.77 36.3733 197.77 36.5467 197.797 36.76C197.823 36.9467 197.863 37.1333 197.917 37.32C198.103 37.7467 198.383 38.0667 198.757 38.28C199.13 38.4667 199.503 38.5867 199.877 38.64C200.277 38.6933 200.637 38.6267 200.957 38.44C201.277 38.2533 201.557 38 201.797 37.68C202.063 37.36 202.277 36.9867 202.437 36.56C202.623 36.1333 202.757 35.68 202.837 35.2C202.943 34.24 203.023 33.2267 203.077 32.16C203.13 31.6 203.17 31.0133 203.197 30.4C203.25 29.7867 203.343 29.16 203.477 28.52ZM229.86 30.72C229.007 31.92 227.967 33.2533 226.74 34.72C225.54 36.16 224.167 37.56 222.62 38.92C221.714 39.6667 220.834 40.2533 219.98 40.68C219.127 41.08 218.34 41.3733 217.62 41.56C216.9 41.7733 216.247 41.8933 215.66 41.92C215.1 41.9733 214.66 42 214.34 42C212.26 42 210.754 41.4 209.82 40.2C208.914 39 208.594 37.36 208.86 35.28C209.1 33.4667 209.674 31.6933 210.58 29.96C211.514 28.2267 212.82 26.3467 214.5 24.32C215.087 23.6533 215.82 22.9467 216.7 22.2C217.58 21.4267 218.54 20.72 219.58 20.08C220.62 19.44 221.7 18.92 222.82 18.52C223.967 18.12 225.06 17.9333 226.1 17.96C227.194 17.9867 228.007 18.36 228.54 19.08C229.1 19.7733 229.274 20.6933 229.06 21.84C228.9 22.9067 228.42 23.9733 227.62 25.04C227.3 25.3867 226.967 25.6 226.62 25.68C226.3 25.7333 226.02 25.68 225.78 25.52C225.567 25.36 225.407 25.1067 225.3 24.76C225.22 24.4133 225.26 24.0133 225.42 23.56C225.74 23.1333 225.927 22.7067 225.98 22.28C226.007 22.1467 225.98 22.0533 225.9 22C225.847 21.92 225.714 21.9067 225.5 21.96C224.434 22.1733 223.367 22.6933 222.3 23.52C221.26 24.3467 220.287 25.2933 219.38 26.36C218.474 27.4267 217.674 28.5467 216.98 29.72C216.287 30.8667 215.767 31.88 215.42 32.76L214.98 34.36C214.927 34.76 214.9 35.16 214.9 35.56C214.9 35.9333 214.94 36.2933 215.02 36.64C215.127 36.96 215.274 37.2533 215.46 37.52C215.674 37.76 215.94 37.92 216.26 38L216.18 37.96C216.687 38.0933 217.3 38.0533 218.02 37.84C218.767 37.6267 219.567 37.2533 220.42 36.72C221.3 36.16 222.22 35.44 223.18 34.56C224.14 33.68 225.1 32.64 226.06 31.44C226.567 30.8 227.047 30.1467 227.5 29.48C227.98 28.7867 228.434 28.1333 228.86 27.52C229.154 27.1733 229.487 26.9867 229.86 26.96C230.234 26.9333 230.554 27.0133 230.82 27.2C231.087 27.3867 231.247 27.6667 231.3 28.04C231.354 28.3867 231.207 28.8 230.86 29.28L229.86 30.72ZM242.424 17.84C243.491 18.0533 244.264 18.5733 244.744 19.4C245.251 20.2267 245.531 21.16 245.584 22.2C245.851 22.5733 246.037 23.0267 246.144 23.56C246.251 24.0933 246.304 24.6933 246.304 25.36C246.251 25.5733 246.211 25.7867 246.184 26C246.184 26.2133 246.157 26.4667 246.104 26.76C245.917 27.9067 245.571 29.08 245.064 30.28C244.584 31.4533 243.997 32.6 243.304 33.72C242.611 34.8133 241.824 35.8667 240.944 36.88C240.064 37.8667 239.144 38.7333 238.184 39.48C237.224 40.2 236.237 40.7733 235.224 41.2C234.237 41.6267 233.277 41.84 232.344 41.84C230.611 41.8133 229.184 41.24 228.064 40.12C226.944 39 226.357 37.2667 226.304 34.92C226.304 34.6267 226.317 34.32 226.344 34C226.371 33.6533 226.411 33.2933 226.464 32.92C226.651 31.7733 227.024 30.6 227.584 29.4C228.144 28.1733 228.824 26.9867 229.624 25.84C230.424 24.6933 231.331 23.6133 232.344 22.6C233.384 21.5867 234.464 20.72 235.584 20C236.704 19.2533 237.837 18.6933 238.984 18.32C240.157 17.92 241.304 17.76 242.424 17.84ZM239.624 28.4C239.411 28.32 239.264 28.1333 239.184 27.84C239.131 27.5467 239.104 27.2267 239.104 26.88C239.104 26.5067 239.131 26.12 239.184 25.72C239.264 25.32 239.331 24.9733 239.384 24.68C239.464 24.3333 239.624 24 239.864 23.68C240.131 23.3333 240.411 23.04 240.704 22.8C240.997 22.5333 241.277 22.3067 241.544 22.12C241.837 21.9333 242.064 21.8 242.224 21.72C242.144 21.6667 241.957 21.64 241.664 21.64C241.077 21.6933 240.397 21.9333 239.624 22.36C238.851 22.76 238.117 23.2667 237.424 23.88C236.704 24.5467 236.037 25.2933 235.424 26.12C234.811 26.92 234.251 27.76 233.744 28.64C233.264 29.52 232.851 30.4 232.504 31.28C232.184 32.1333 231.971 32.9333 231.864 33.68C231.677 34.6933 231.717 35.5467 231.984 36.24C232.251 36.9067 232.824 37.2667 233.704 37.32C234.344 37.3467 235.011 37.1867 235.704 36.84C236.397 36.4667 237.077 35.9733 237.744 35.36C238.411 34.7467 239.051 34.04 239.664 33.24C240.304 32.4133 240.877 31.56 241.384 30.68C241.891 29.7733 242.317 28.88 242.664 28C243.011 27.12 243.237 26.3067 243.344 25.56L243.424 25.36C243.211 25.36 242.957 25.4533 242.664 25.64C242.397 25.8 242.131 26 241.864 26.24C241.624 26.48 241.397 26.7333 241.184 27C240.997 27.2667 240.864 27.5067 240.784 27.72L239.624 28.4Z" fill="#FF4C13"/>
</svg>
