<svg width="64" height="65" viewBox="0 0 64 65" fill="none" xmlns="http://www.w3.org/2000/svg">
<circle cx="32" cy="32.3193" r="31.5" fill="#1D1D1D" stroke="white"/>
<path d="M32 24.3193C32 24.3193 25.7455 24.3193 24.1855 24.7373C23.3245 24.9673 22.648 25.6449 22.418 26.5049C22 28.0649 22 32.3193 22 32.3193C22 32.3193 22 36.5738 22.418 38.1338C22.648 38.9948 23.3255 39.6714 24.1855 39.9014C25.7455 40.3194 32 40.3193 32 40.3193C32 40.3193 38.2545 40.3194 39.8145 39.9014C40.6745 39.6714 41.352 38.9938 41.582 38.1338C42 36.5738 42 32.3193 42 32.3193C42 32.3193 42 28.0649 41.582 26.5049C41.352 25.6449 40.6745 24.9673 39.8145 24.7373C38.2545 24.3193 32 24.3193 32 24.3193ZM32 26.3193C34.882 26.3193 38.4909 26.4529 39.2969 26.6689C39.4659 26.7139 39.6044 26.8525 39.6504 27.0225C39.8914 27.9205 40 30.6613 40 32.3193C40 33.9773 39.8914 36.7172 39.6504 37.6162C39.6054 37.7852 39.4669 37.9237 39.2969 37.9697C38.4919 38.1857 34.882 38.3193 32 38.3193C29.119 38.3193 25.5101 38.1857 24.7031 37.9697C24.5341 37.9247 24.3956 37.7862 24.3496 37.6162C24.1086 36.7182 24 33.9773 24 32.3193C24 30.6613 24.1086 27.9205 24.3496 27.0205C24.3946 26.8525 24.5331 26.7139 24.7031 26.6689C25.5081 26.4529 29.118 26.3193 32 26.3193ZM30 28.8545V35.7842L36 32.3193L30 28.8545Z" fill="white"/>
</svg>
